<?xml version="1.0" standalone="no"?>
<!DOCTYPE svg PUBLIC "-//W3C//DTD SVG 20010904//EN"
 "http://www.w3.org/TR/2001/REC-SVG-20010904/DTD/svg10.dtd">
<svg version="1.0" xmlns="http://www.w3.org/2000/svg"
 width="254.000000pt" height="82.000000pt" viewBox="0 0 254.000000 82.000000"
 preserveAspectRatio="xMidYMid meet">

<g transform="translate(0.000000,82.000000) scale(0.100000,-0.100000)"
fill="#000000" stroke="none">
<path d="M208 806 c-64 -17 -121 -57 -155 -108 -31 -46 -56 -98 -47 -98 17 0
402 184 399 191 -6 9 -97 29 -128 28 -12 0 -43 -6 -69 -13z"/>
<path d="M454 728 c4 -27 23 -272 29 -380 1 -16 4 -28 7 -28 14 1 60 83 75
134 27 93 4 191 -65 269 -40 46 -52 47 -46 5z"/>
<path d="M734 452 c-11 -7 -53 -65 -148 -199 l-57 -83 35 0 c31 0 40 6 62 40
l27 40 98 0 98 0 28 -40 c23 -32 34 -40 61 -40 17 0 32 2 32 4 0 5 -142 210
-176 254 -25 32 -40 38 -60 24z m44 -99 c37 -54 37 -53 -28 -53 l-60 0 26 40
c15 22 30 40 35 40 4 0 16 -12 27 -27z"/>
<path d="M980 342 c0 -158 -3 -156 172 -160 l130 -4 -4 24 c-3 22 -7 23 -118
28 l-115 5 -3 113 -3 112 -29 0 -30 0 0 -118z"/>
<path d="M1353 449 c-61 -18 -72 -94 -20 -133 23 -17 48 -22 125 -26 96 -5 97
-5 100 -31 3 -22 -2 -27 -29 -33 -17 -3 -76 -6 -130 -6 l-99 0 0 -26 0 -27
134 5 c165 6 186 15 186 83 0 66 -29 85 -131 85 -86 0 -129 12 -129 34 0 22
32 36 79 36 37 0 41 2 41 25 0 23 -3 25 -47 24 -27 0 -63 -5 -80 -10z"/>
<path d="M1530 435 c0 -24 2 -25 65 -25 l65 0 0 -120 0 -120 30 0 30 0 0 120
0 120 65 0 c63 0 65 1 65 25 l0 25 -160 0 -160 0 0 -25z"/>
<path d="M1923 445 c-17 -7 -36 -22 -42 -34 -12 -21 -15 -159 -5 -186 13 -34
58 -45 189 -45 l125 0 0 25 0 24 -127 3 -128 3 -3 28 -3 27 130 0 131 0 0 25
0 25 -130 0 c-129 0 -130 0 -130 23 0 35 19 47 77 47 50 0 53 1 53 25 0 24 -3
25 -52 25 -29 -1 -67 -7 -85 -15z"/>
<path d="M2260 442 l-35 -17 -3 -102 c-3 -99 -2 -101 24 -122 24 -19 40 -21
160 -21 l134 0 0 25 0 24 -127 3 -128 3 0 85 0 85 128 3 127 3 0 24 0 25 -122
0 c-97 0 -130 -4 -158 -18z"/>
<path d="M1625 120 c-3 -5 -2 -10 4 -10 5 0 13 5 16 10 3 6 2 10 -4 10 -5 0
-13 -4 -16 -10z"/>
<path d="M1311 68 c1 -29 4 -43 6 -30 5 27 4 27 56 2 25 -13 34 -15 23 -5 -11
8 -25 16 -30 16 -6 1 2 4 19 8 32 7 46 38 23 52 -7 5 -32 9 -55 9 l-43 0 1
-52z m94 22 c0 -10 -13 -16 -42 -18 -38 -3 -43 -1 -43 18 0 19 5 21 43 18 29
-2 42 -8 42 -18z"/>
<path d="M1550 70 c0 -29 3 -50 7 -47 3 4 6 25 6 47 0 22 -3 43 -6 47 -4 3 -7
-18 -7 -47z"/>
<path d="M2027 113 c-4 -3 -7 -27 -7 -51 0 -25 3 -42 8 -38 4 4 7 13 7 19 0 7
20 13 48 15 51 3 69 21 47 47 -13 15 -90 21 -103 8z m96 -17 c8 -20 -2 -26
-44 -26 -34 0 -57 19 -42 34 13 12 81 6 86 -8z"/>
<path d="M2388 109 c-3 -8 -2 -32 2 -54 7 -39 8 -39 9 -7 1 21 6 32 16 32 8 0
15 5 15 10 0 6 -6 10 -14 10 -8 0 -16 5 -18 12 -3 8 -6 7 -10 -3z"/>
<path d="M1457 93 c-14 -4 -17 -13 -15 -36 2 -26 8 -32 28 -34 22 -1 22 -1 3
4 -38 8 -26 23 17 23 33 0 40 4 40 19 0 27 -27 36 -73 24z m63 -23 c0 -5 -16
-10 -35 -10 -19 0 -35 5 -35 10 0 6 16 10 35 10 19 0 35 -4 35 -10z"/>
<path d="M1615 90 c-20 -3 -31 -12 -33 -26 -4 -29 20 -46 60 -42 29 3 33 7 36
34 3 35 -12 44 -63 34z m53 -32 c-2 -18 -11 -24 -35 -26 -30 -3 -33 -1 -33 22
0 23 4 26 36 26 31 0 35 -3 32 -22z"/>
<path d="M1718 89 c-22 -13 -23 -55 -2 -63 9 -3 28 -6 42 -7 24 0 25 -1 7 -10
-18 -8 -18 -8 5 -6 21 2 25 8 28 40 3 32 0 38 -23 47 -32 12 -35 12 -57 -1z
m67 -34 c0 -16 -7 -20 -35 -20 -29 0 -36 4 -38 23 -3 21 0 23 35 20 30 -2 38
-7 38 -23z"/>
<path d="M1868 89 c-28 -16 -23 -57 7 -65 42 -10 75 3 75 31 0 37 -45 56 -82
34z m67 -34 c0 -16 -7 -20 -35 -20 -29 0 -36 4 -38 23 -3 21 0 23 35 20 30 -2
38 -7 38 -23z"/>
<path d="M2168 89 c-28 -16 -23 -57 7 -65 42 -10 75 3 75 31 0 37 -45 56 -82
34z m70 -31 c-2 -19 -9 -23 -38 -23 -29 0 -36 4 -38 23 -3 20 1 22 38 22 37 0
41 -2 38 -22z"/>
<path d="M2288 93 c-14 -3 -18 -14 -16 -41 l1 -37 4 33 c4 29 7 32 39 32 32 0
34 -2 34 -32 0 -37 13 -30 15 8 0 19 -6 29 -23 35 -24 9 -26 9 -54 2z"/>
<path d="M2458 89 c-22 -13 -23 -55 -2 -63 25 -10 59 -7 72 6 39 39 -20 86
-70 57z m64 -15 c3 -3 3 -14 1 -25 -8 -30 -67 -23 -71 9 -3 19 1 22 31 22 18
0 36 -3 39 -6z"/>
<path d="M1823 55 c0 -22 2 -30 4 -17 2 12 2 30 0 40 -3 9 -5 -1 -4 -23z"/>
</g>
</svg>
